<svg xmlns="http://www.w3.org/2000/svg" viewBox="0 0 320 160" role="img" aria-label="Caballeria">
  <defs>
    <linearGradient id="sky" x1="0" y1="0" x2="1" y2="1">
      <stop offset="0" stop-color="#4c2b2e"/>
      <stop offset="1" stop-color="#b96f58"/>
    </linearGradient>
  </defs>
  <rect width="320" height="160" fill="url(#sky)"/>
  <rect x="8" y="8" width="304" height="144" rx="14" fill="none" stroke="#ebb499" stroke-opacity="0.6" stroke-width="2"/>
  <path d="M0 132 C40 109 89 102 152 114 C208 124 256 114 320 122 L320 160 L0 160 Z" fill="#2f1b1e"/>
  <g fill="#1a1112">
    <path d="M68 109 C80 82 112 66 142 74 C156 58 183 58 204 72 C223 72 240 82 251 101 C260 105 264 111 262 120 L224 120 C218 104 195 102 180 111 L126 111 C115 104 95 103 82 118 L60 118 Z"/>
    <rect x="92" y="118" width="10" height="20"/>
    <rect x="132" y="118" width="10" height="20"/>
    <rect x="187" y="118" width="10" height="20"/>
    <rect x="216" y="118" width="10" height="20"/>
  </g>
  <g fill="#f0c88d">
    <polygon points="184,52 211,62 184,72"/>
    <circle cx="181" cy="84" r="8"/>
  </g>
  <line x1="184" y1="52" x2="184" y2="108" stroke="#f3ddba" stroke-width="3"/>
  <text x="24" y="34" font-family="Georgia" font-size="16" fill="#ffd8cc">CABALLERIA</text>
</svg>