<svg xmlns="http://www.w3.org/2000/svg" viewBox="0 0 320 160" role="img" aria-label="Lanceros">
  <defs>
    <linearGradient id="sky" x1="0" y1="0" x2="1" y2="1">
      <stop offset="0" stop-color="#28485d"/>
      <stop offset="1" stop-color="#6aa1b8"/>
    </linearGradient>
  </defs>
  <rect width="320" height="160" fill="url(#sky)"/>
  <rect x="8" y="8" width="304" height="144" rx="14" fill="none" stroke="#a5d0df" stroke-opacity="0.65" stroke-width="2"/>
  <path d="M0 123 C44 107 92 102 140 110 C196 120 242 108 320 117 L320 160 L0 160 Z" fill="#1d2d36"/>
  <g stroke="#def5ff" stroke-width="3">
    <line x1="84" y1="38" x2="84" y2="126"/>
    <line x1="130" y1="30" x2="130" y2="126"/>
    <line x1="176" y1="34" x2="176" y2="126"/>
    <line x1="222" y1="28" x2="222" y2="126"/>
  </g>
  <g fill="#e7bf7d">
    <polygon points="84,38 111,48 84,58"/>
    <polygon points="130,30 157,40 130,50"/>
    <polygon points="176,34 203,44 176,54"/>
    <polygon points="222,28 249,38 222,48"/>
  </g>
  <g fill="#0e171d">
    <circle cx="84" cy="93" r="8"/>
    <circle cx="130" cy="91" r="8"/>
    <circle cx="176" cy="95" r="8"/>
    <circle cx="222" cy="90" r="8"/>
  </g>
  <text x="24" y="34" font-family="Georgia" font-size="16" fill="#dff5ff">LANCEROS</text>
</svg>