<svg xmlns="http://www.w3.org/2000/svg" viewBox="0 0 320 160" role="img" aria-label="Milicia">
  <defs>
    <linearGradient id="sky" x1="0" y1="0" x2="1" y2="1">
      <stop offset="0" stop-color="#4f3b2a"/>
      <stop offset="1" stop-color="#b97d42"/>
    </linearGradient>
  </defs>
  <rect width="320" height="160" fill="url(#sky)"/>
  <rect x="8" y="8" width="304" height="144" rx="14" fill="none" stroke="#f1c27c" stroke-opacity="0.6" stroke-width="2"/>
  <path d="M0 118 C56 88 114 90 160 116 C208 92 265 88 320 118 L320 160 L0 160 Z" fill="#362214"/>
  <g fill="#20150e">
    <circle cx="108" cy="88" r="10"/>
    <rect x="99" y="98" width="18" height="34" rx="4"/>
    <rect x="96" y="108" width="5" height="28"/>
    <rect x="116" y="108" width="5" height="28"/>

    <circle cx="160" cy="82" r="11"/>
    <rect x="150" y="93" width="20" height="40" rx="4"/>
    <rect x="145" y="105" width="5" height="31"/>
    <rect x="170" y="105" width="5" height="31"/>

    <circle cx="212" cy="88" r="10"/>
    <rect x="203" y="98" width="18" height="34" rx="4"/>
    <rect x="200" y="108" width="5" height="28"/>
    <rect x="220" y="108" width="5" height="28"/>
  </g>
  <g stroke="#f2d39f" stroke-width="3">
    <line x1="128" y1="48" x2="96" y2="130"/>
    <line x1="178" y1="42" x2="146" y2="130"/>
    <line x1="230" y1="48" x2="198" y2="130"/>
  </g>
  <text x="24" y="34" font-family="Georgia" font-size="16" fill="#ffe6bc">MILICIA</text>
</svg>