<svg xmlns="http://www.w3.org/2000/svg" viewBox="0 0 320 160" role="img" aria-label="Veteranos">
  <defs>
    <linearGradient id="sky" x1="0" y1="0" x2="1" y2="1">
      <stop offset="0" stop-color="#3a3240"/>
      <stop offset="1" stop-color="#8b7c6f"/>
    </linearGradient>
  </defs>
  <rect width="320" height="160" fill="url(#sky)"/>
  <rect x="8" y="8" width="304" height="144" rx="14" fill="none" stroke="#d3c3ae" stroke-opacity="0.62" stroke-width="2"/>
  <path d="M0 126 C40 108 90 102 160 114 C216 123 266 112 320 120 L320 160 L0 160 Z" fill="#262129"/>
  <g fill="#171218">
    <circle cx="104" cy="84" r="10"/>
    <rect x="95" y="95" width="18" height="38" rx="4"/>
    <circle cx="160" cy="80" r="11"/>
    <rect x="150" y="91" width="20" height="42" rx="4"/>
    <circle cx="216" cy="84" r="10"/>
    <rect x="207" y="95" width="18" height="38" rx="4"/>
  </g>
  <g stroke="#cfb58d" stroke-width="3">
    <line x1="88" y1="42" x2="88" y2="132"/>
    <line x1="160" y1="36" x2="160" y2="132"/>
    <line x1="232" y1="42" x2="232" y2="132"/>
  </g>
  <g fill="#7d2632">
    <path d="M88 42 L118 54 L88 66 Z"/>
    <path d="M160 36 L190 48 L160 60 Z"/>
    <path d="M232 42 L262 54 L232 66 Z"/>
  </g>
  <text x="24" y="34" font-family="Georgia" font-size="16" fill="#efe0cf">VETERANOS</text>
</svg>